HIERARCHY
ROOT root
{
	OFFSET	0	13.1	24.9
	CHANNELS 6  Xposition Yposition Zposition Xrotation Yrotation Zrotation
	JOINT spine_1
	{
		OFFSET	0	9.99999	0
		CHANNELS 3  Xrotation Yrotation Zrotation
		JOINT spine_2
		{
			OFFSET	0	112	-10
			CHANNELS 3  Xrotation Yrotation Zrotation
			JOINT spine_3
			{
				OFFSET	0	206.5	19.3
				CHANNELS 3  Xrotation Yrotation Zrotation
				JOINT spine_4
				{
					OFFSET	0	110.4	14.6
					CHANNELS 3  Xrotation Yrotation Zrotation
					JOINT neck_1
					{
						OFFSET	0	71.8	-50.3
						CHANNELS 3  Xrotation Yrotation Zrotation
						JOINT neck_2
						{
							OFFSET	0	86.2	-25.8
							CHANNELS 3  Xrotation Yrotation Zrotation
							JOINT head_ee
							{
								OFFSET	0	179.8	-8.7
								CHANNELS 3  Xrotation Yrotation Zrotation
								End Site
								{
									OFFSET	1	0	0
								}
							}
						}
					}
					JOINT left_clavicle
					{
						OFFSET	-43.2	22.4	-70.8
						CHANNELS 3  Xrotation Yrotation Zrotation
						JOINT left_shoulder
						{
							OFFSET	-93.9	-5.79999	48.7
							CHANNELS 3  Xrotation Yrotation Zrotation
							JOINT left_elbow
							{
								OFFSET	-291.4	-30.8	15.2
								CHANNELS 3  Xrotation Yrotation Zrotation
								JOINT left_lowarm_twist
								{
									OFFSET	-110.7	-3.89999	13.6
									CHANNELS 3  Xrotation Yrotation Zrotation
									JOINT left_hand
									{
										OFFSET	-110.7	-3.89999	13.6
										CHANNELS 3  Xrotation Yrotation Zrotation
										JOINT left_ee
										{
											OFFSET	-80.8	-5.10001	12.1
											CHANNELS 3  Xrotation Yrotation Zrotation
											End Site
											{
												OFFSET	1	0	0
											}
										}
									}
								}
							}
						}
					}
					JOINT right_clavicle
					{
						OFFSET	43.2	22.4	-70.8
						CHANNELS 3  Xrotation Yrotation Zrotation
						JOINT right_shoulder
						{
							OFFSET	93.9	-5.79999	48.7
							CHANNELS 3  Xrotation Yrotation Zrotation
							JOINT right_elbow
							{
								OFFSET	291.4	-30.8	15.2
								CHANNELS 3  Xrotation Yrotation Zrotation
								JOINT right_lowarm_twist
								{
									OFFSET	110.7	-3.89999	13.6
									CHANNELS 3  Xrotation Yrotation Zrotation
									JOINT right_hand
									{
										OFFSET	110.7	-3.89999	13.6
										CHANNELS 3  Xrotation Yrotation Zrotation
										JOINT right_ee
										{
											OFFSET	80.8	-5.10001	12.1
											CHANNELS 3  Xrotation Yrotation Zrotation
											End Site
											{
												OFFSET	1	0	0
											}
										}
									}
								}
							}
						}
					}
				}
			}
		}
	}
	JOINT left_hip
	{
		OFFSET	-82.8	-127.5	0.300001
		CHANNELS 3  Xrotation Yrotation Zrotation
		JOINT left_knee
		{
			OFFSET	-28.2	-396.7	2.2
			CHANNELS 3  Xrotation Yrotation Zrotation
			JOINT left_ankle
			{
				OFFSET	-11.7	-411.3	35.4
				CHANNELS 3  Xrotation Yrotation Zrotation
				JOINT left_toes
				{
					OFFSET	0	-60	-88.6
					CHANNELS 3  Xrotation Yrotation Zrotation
					JOINT left_foot_ee
					{
						OFFSET	-22.5	-16.5	-42.2
						CHANNELS 3  Xrotation Yrotation Zrotation
						End Site
						{
							OFFSET	1	0	0
						}
					}
				}
			}
		}
	}
	JOINT right_hip
	{
		OFFSET	82.8	-127.5	0.300001
		CHANNELS 3  Xrotation Yrotation Zrotation
		JOINT right_knee
		{
			OFFSET	28.2	-396.7	2.2
			CHANNELS 3  Xrotation Yrotation Zrotation
			JOINT right_ankle
			{
				OFFSET	11.7	-411.3	35.4
				CHANNELS 3  Xrotation Yrotation Zrotation
				JOINT right_toes
				{
					OFFSET	0	-60	-88.6
					CHANNELS 3  Xrotation Yrotation Zrotation
					JOINT right_foot_ee
					{
						OFFSET	22.5	-16.5	-42.2
						CHANNELS 3  Xrotation Yrotation Zrotation
						End Site
						{
							OFFSET	1	0	0
						}
					}
				}
			}
		}
	}
}
MOTION
Frames: 15
Frame Time: 0.02
3574.42 741.953 -1474.73 -178.100776673 63.0341966344 -173.176119357 1.91172 -0.726048 -4.99331 1.92549 -0.407251 -5.02927 1.96115 0.488018 -5.0221 1.92611 -0.310217 -5.03617 -11.7691 3.31494 5.98995 -11.6715 2.39712 6.67881 -0.0 0.0 -0.0 4.01776 -21.958 6.13179 -8.49281 -19.7385 83.1885 1.43309 -35.3693 0.456956 20.9477 0.256454 -2.64872 -1.76715 24.7177 -0.212508 -0.0 0.0 -0.0 -7.42488 -12.1277 11.2378 -4.75877 31.5299 -72.7515 0.832593 22.4131 -0.16496 42.4213 0.481159 5.27567 -0.778988 -23.0683 -4.69808 0.0 0.0 0.0 4.81009 25.1364 -9.79073 -2.66289 0.100445 0.396287 37.4291 -22.6605 -5.23336 -2.90953 0.0 0.0 -0.0 0.0 -0.0 -1.44022 -21.5709 -11.2821 -3.5167 -0.128735 -0.524265 -6.90099 20.6315 -1.17396 -15.5768 0.0 0.0 0.0 0.0 0.0 
3576.59137159 744.448 -1472.16836099 -176.964784261 62.3263060535 -173.977911227 1.86791 -0.926027 -5.10846 1.88222 -0.599529 -5.15686 1.93649 0.322852 -5.18148 1.8994 -0.498398 -5.16758 -10.3871 3.25543 6.06083 -10.2864 2.07176 6.71625 -0.0 0.0 -0.0 4.379 -22.9498 6.81825 -8.34433 -17.4817 83.2096 1.36483 -34.0606 0.418077 19.7986 0.267638 -2.50237 -1.64052 18.4393 -2.4207 -0.0 0.0 -0.0 -7.08172 -11.9626 10.6805 -4.96981 31.6242 -72.1466 0.761507 20.6678 -0.138857 42.2699 0.472567 5.25831 -0.665477 -18.8367 -3.61487 0.0 0.0 0.0 4.23487 24.2929 -9.15943 -0.454149 0.0184339 0.0672561 36.0774 -22.4948 -5.09058 -3.75225 0.0 0.0 -0.0 0.0 -0.0 -0.729854 -22.4088 -11.2229 -3.50095 -0.12823 -0.521901 -7.69987 21.0408 -1.31709 -14.6866 0.0 0.0 0.0 0.0 0.0 
3578.89536508 743.814 -1470.4699793 -177.241823799 62.1302298636 -173.961555556 1.75455 -0.896375 -5.06344 1.76863 -0.572791 -5.11005 1.82045 0.351385 -5.12998 1.78404 -0.462119 -5.12121 -10.3619 2.88246 6.33485 -10.2501 1.18096 6.88894 -0.0 0.0 -0.0 4.03333 -22.4545 6.11757 -8.00134 -18.8658 83.36 1.41024 -34.9359 0.4438 19.8932 0.266828 -2.51442 -2.04319 22.0134 -3.09527 -0.0 0.0 -0.0 -7.49152 -12.0965 11.3656 -2.86819 32.3156 -73.1641 0.734587 19.9961 -0.129503 42.6128 0.492096 5.29759 -0.582738 -19.4895 -4.38038 0.0 0.0 0.0 4.14537 24.2963 -8.67481 -0.5889 0.0238004 0.0872391 38.3314 -21.7087 -5.27568 -2.98631 0.0 0.0 -0.0 0.0 -0.0 -0.470568 -19.0484 -10.6808 -3.01035 -0.112188 -0.448319 -5.81851 21.6295 -0.997602 -13.7302 0.0 0.0 0.0 0.0 0.0 
3578.82028759 743.814 -1470.39247327 -177.147215114 63.1296684371 -174.068086113 1.75455 -0.896375 -5.06344 1.76863 -0.572791 -5.11005 1.82045 0.351385 -5.12998 1.78404 -0.462119 -5.12121 -10.3619 2.88246 6.33485 -10.2501 1.18096 6.88894 -0.0 0.0 -0.0 4.03333 -22.4545 6.11757 -8.00134 -18.8658 83.36 1.41024 -34.9359 0.4438 19.8932 0.266828 -2.51442 -2.04319 22.0134 -3.09527 -0.0 0.0 -0.0 -7.49152 -12.0965 11.3656 -2.86819 32.3156 -73.1641 0.734587 19.9961 -0.129503 42.6128 0.492096 5.29759 -0.582738 -19.4895 -4.38038 0.0 0.0 0.0 4.14537 24.2963 -8.67481 -0.5889 0.0238004 0.0872391 38.3314 -21.7087 -5.27568 -2.98631 0.0 0.0 -0.0 0.0 -0.0 -0.470568 -19.0484 -10.6808 -3.01035 -0.112188 -0.448319 -5.81851 21.6295 -0.997602 -13.7302 0.0 0.0 0.0 0.0 0.0 
3579.19870395 747.949 -1463.90860967 -176.527673236 65.274711782 -174.711926522 1.71189 -0.823042 -5.08801 1.72615 -0.498047 -5.12992 1.77155 0.433182 -5.13579 1.73496 -0.382254 -5.13982 -9.99746 1.76651 6.42587 -9.88069 -1.0262 6.70522 -0.0 0.0 -0.0 4.05964 -20.3425 6.37493 -7.87888 -18.2862 83.9897 1.33033 -33.3836 0.398928 19.6233 0.269086 -2.48002 -2.09057 22.8961 -2.9359 -0.0 0.0 -0.0 -7.49667 -11.5827 11.5326 -1.43685 32.1697 -73.6699 0.652498 17.9124 -0.102835 41.6712 0.439029 5.18945 -0.779073 -18.5679 -2.81908 0.0 0.0 0.0 3.88242 23.9335 -8.24277 -1.16256 0.04612 0.172446 38.149 -19.0876 -5.14539 -3.28869 0.0 0.0 -0.0 0.0 -0.0 -0.549262 -19.6732 -10.4464 -2.41761 -0.0919653 -0.359598 -7.00129 21.5989 -1.2028 -12.995 0.0 0.0 0.0 0.0 0.0 
3578.25221654 745.85 -1462.24047109 -176.680166872 63.8119219356 -174.230312977 1.68955 -0.943035 -5.21096 1.70444 -0.610007 -5.26022 1.76152 0.347031 -5.28402 1.72291 -0.490648 -5.27266 -9.35005 1.64283 6.26088 -9.23894 -1.21919 6.52832 -0.0 0.0 -0.0 4.24877 -21.1984 6.70343 -7.66465 -19.3185 84.0152 1.27925 -32.361 0.371198 19.721 0.268287 -2.49248 -2.16949 21.0403 -4.3163 -0.0 0.0 -0.0 -7.37603 -11.2665 11.4127 -1.66961 30.6682 -74.0039 0.61991 17.0711 -0.0930402 42.8346 0.50485 5.32293 -0.538645 -17.0269 -3.63385 0.0 0.0 0.0 3.92237 24.9227 -8.19641 -0.196514 0.00804197 0.0290848 38.5292 -18.6965 -5.16541 -2.99751 0.0 0.0 -0.0 0.0 -0.0 -0.624594 -18.6887 -10.6093 -3.35201 -0.123427 -0.499549 -3.0004 21.6999 -0.511583 -11.0766 0.0 0.0 0.0 0.0 0.0 
3577.54143623 745.665 -1459.51729462 -176.576513571 64.3294892883 -174.149746431 1.62158 -0.877719 -5.23696 1.63667 -0.543175 -5.28203 1.68801 0.423803 -5.29291 1.64918 -0.416229 -5.29351 -9.7091 1.22691 6.78199 -9.57893 -2.31713 6.93061 -0.0 0.0 -0.0 4.29786 -19.6814 6.9492 -7.38249 -19.6039 84.2312 1.26804 -32.1336 0.36522 20.1262 0.264748 -2.54412 -2.19726 20.0436 -4.97868 -0.0 0.0 -0.0 -7.19736 -11.555 11.0068 -1.38137 30.3603 -73.2765 0.59179 16.3389 -0.0849571 42.3476 0.47697 5.26722 -0.656665 -16.1702 -2.55439 0.0 0.0 0.0 3.7127 24.6014 -7.90391 0.0891955 -0.00368321 -0.0131923 38.5671 -17.9779 -5.14111 -2.75188 0.0 0.0 -0.0 0.0 -0.0 -0.711915 -18.2578 -10.6071 -2.88846 -0.108105 -0.430058 -2.91259 21.1719 -0.493873 -10.442 0.0 0.0 0.0 0.0 0.0 
3579.40807328 744.227 -1457.74274872 -176.025979545 64.0886803415 -174.483958599 1.65525 -0.833614 -5.29285 1.67069 -0.495618 -5.335 1.71791 0.477623 -5.33664 1.67838 -0.369954 -5.34516 -9.0312 1.1777 6.06999 -8.92635 -1.99397 6.24124 -0.0 0.0 -0.0 4.22176 -20.4658 6.71331 -6.67583 -20.0007 84.3369 1.23604 -31.4777 0.348352 20.155 0.264483 -2.54778 -2.17611 20.8668 -4.44187 -0.0 0.0 -0.0 -7.44618 -11.1646 11.5695 -0.988004 30.0027 -73.8449 0.555974 15.3984 -0.0751634 42.7333 0.499011 5.31136 -0.442884 -15.1588 -3.45249 0.0 0.0 0.0 3.3997 24.3346 -7.56538 0.915088 -0.0387619 -0.135073 38.8852 -16.8969 -5.13048 -2.28889 0.0 0.0 -0.0 0.0 -0.0 -0.612931 -17.7821 -10.3127 -3.04454 -0.113326 -0.453441 -0.928283 21.6275 -0.157329 -9.17122 0.0 0.0 0.0 0.0 0.0 
3579.09988384 743.12 -1454.20193903 -175.782040685 64.8668556044 -174.605068567 1.62938 -0.728968 -5.2153 1.64442 -0.396096 -5.25098 1.68174 0.563979 -5.23566 1.64361 -0.268792 -5.25901 -9.54734 0.303775 5.74008 -9.45469 -3.35525 5.69412 -0.0 0.0 -0.0 3.98014 -19.4826 6.28294 -6.83015 -20.5701 84.3321 1.26769 -32.1264 0.365031 20.0085 0.265814 -2.52912 -2.26648 20.8756 -4.97119 -0.0 0.0 -0.0 -7.53712 -10.8904 11.817 -0.612531 29.3403 -74.0005 0.533869 14.8136 -0.0694027 43.0275 0.516028 5.34493 -0.44121 -14.79 -3.31079 0.0 0.0 0.0 2.68207 24.3911 -7.09865 1.50875 -0.0650632 -0.222371 38.7017 -14.8413 -5.04438 -1.95765 0.0 0.0 -0.0 0.0 -0.0 -0.687949 -17.7925 -10.3045 -3.2008 -0.118491 -0.476867 0.80176 21.1255 0.134555 -8.13354 0.0 0.0 0.0 0.0 0.0 
3576.54284831 745.869 -1450.13672899 -175.831412406 65.8278792754 -174.198837764 1.69138 -0.678786 -5.19413 1.70632 -0.347356 -5.22668 1.7387 0.602491 -5.20351 1.701 -0.225704 -5.23332 -9.48203 -0.366931 4.42097 -9.42807 -3.71599 4.24258 -0.0 0.0 -0.0 3.7132 -15.0718 6.10113 -7.24421 -20.657 83.9479 1.30119 -32.803 0.383012 21.4976 0.250064 -2.71867 -1.88671 21.3412 -2.50737 -0.0 0.0 -0.0 -7.70514 -11.3996 11.9631 -0.491708 30.3977 -73.7294 0.54869 15.2061 -0.0732411 43.2801 0.530774 5.37369 -0.316371 -14.9905 -4.16842 0.0 0.0 0.0 2.24311 22.3323 -7.32845 2.58661 -0.115126 -0.38017 38.2065 -13.948 -4.9716 -1.56282 0.0 0.0 -0.0 0.0 -0.0 -1.27263 -16.9461 -10.4446 -2.45664 -0.0933253 -0.365433 -0.262705 22.8775 -0.0450226 -8.23065 0.0 0.0 0.0 0.0 0.0 
3574.96396046 745.869 -1450.05127291 -175.127203432 69.4872890543 -174.959813774 1.69138 -0.678786 -5.19413 1.70632 -0.347356 -5.22668 1.7387 0.602491 -5.20351 1.701 -0.225704 -5.23332 -9.48203 -0.366931 4.42097 -9.42807 -3.71599 4.24258 -0.0 0.0 -0.0 3.7132 -15.0718 6.10113 -7.24421 -20.657 83.9479 1.30119 -32.803 0.383012 21.4976 0.250064 -2.71867 -1.88671 21.3412 -2.50737 -0.0 0.0 -0.0 -7.70514 -11.3996 11.9631 -0.491708 30.3977 -73.7294 0.54869 15.2061 -0.0732411 43.2801 0.530774 5.37369 -0.316371 -14.9905 -4.16842 0.0 0.0 0.0 2.24311 22.3323 -7.32845 2.58661 -0.115126 -0.38017 38.2065 -13.948 -4.9716 -1.56282 0.0 0.0 -0.0 0.0 -0.0 -1.27263 -16.9461 -10.4446 -2.45664 -0.0933253 -0.365433 -0.262705 22.8775 -0.0450226 -8.23065 0.0 0.0 0.0 0.0 0.0 
3573.02812659 745.869 -1450.08455108 -173.815079625 73.9617776427 -176.340577195 1.69138 -0.678786 -5.19413 1.70632 -0.347356 -5.22668 1.7387 0.602491 -5.20351 1.701 -0.225704 -5.23332 -9.48203 -0.366931 4.42097 -9.42807 -3.71599 4.24258 -0.0 0.0 -0.0 3.7132 -15.0718 6.10113 -7.24421 -20.657 83.9479 1.30119 -32.803 0.383012 21.4976 0.250064 -2.71867 -1.88671 21.3412 -2.50737 -0.0 0.0 -0.0 -7.70514 -11.3996 11.9631 -0.491708 30.3977 -73.7294 0.54869 15.2061 -0.0732411 43.2801 0.530774 5.37369 -0.316371 -14.9905 -4.16842 0.0 0.0 0.0 2.24311 22.3323 -7.32845 2.58661 -0.115126 -0.38017 38.2065 -13.948 -4.9716 -1.56282 0.0 0.0 -0.0 0.0 -0.0 -1.27263 -16.9461 -10.4446 -2.45664 -0.0933253 -0.365433 -0.262705 22.8775 -0.0450226 -8.23065 0.0 0.0 0.0 0.0 0.0 
3560.41095409 748.538 -1415.38174171 178.027951882 21.7063750454 -170.076734794 1.19758 -0.622227 -3.76981 1.2054 -0.381261 -3.8017 1.23231 0.344748 -3.80518 1.2122 -0.260086 -3.81189 -10.9491 -9.02132 2.60785 -11.0773 -18.7613 0.104991 -0.0 0.0 -0.0 5.83864 -16.328 10.542 -22.2275 -44.7191 74.1271 0.713067 -19.4549 0.12224 50.211 -0.983959 -6.13571 -3.19578 28.7831 -5.99335 -0.0 0.0 -0.0 -3.17899 -8.98369 4.51432 3.02252 27.5642 -63.507 0.552737 15.313 -0.0743062 42.3829 0.478973 5.27126 5.18057 22.5122 -25.0657 0.0 0.0 0.0 -11.1831 -10.4781 -6.15971 2.38883 -0.105718 -0.351285 37.2787 15.6254 -4.68969 10.9807 -0.0 -0.0 -0.0 0.0 -0.0 -5.69933 -5.34381 -11.7862 -8.06438 -0.247074 -1.21196 4.83 9.29124 0.731672 12.0181 -0.0 -0.0 0.0 0.0 0.0 
3556.82914206 748.538 -1416.34309354 177.975223558 25.1893574496 -169.944284344 1.19758 -0.622227 -3.76981 1.2054 -0.381261 -3.8017 1.23231 0.344748 -3.80518 1.2122 -0.260086 -3.81189 -10.9491 -9.02132 2.60785 -11.0773 -18.7613 0.104991 -0.0 0.0 -0.0 5.83864 -16.328 10.542 -22.2275 -44.7191 74.1271 0.713067 -19.4549 0.12224 50.211 -0.983959 -6.13571 -3.19578 28.7831 -5.99335 -0.0 0.0 -0.0 -3.17899 -8.98369 4.51432 3.02252 27.5642 -63.507 0.552737 15.313 -0.0743062 42.3829 0.478973 5.27126 5.18057 22.5122 -25.0657 0.0 0.0 0.0 -11.1831 -10.4781 -6.15971 2.38883 -0.105718 -0.351285 37.2787 15.6254 -4.68969 10.9807 -0.0 -0.0 -0.0 0.0 -0.0 -5.69933 -5.34381 -11.7862 -8.06438 -0.247074 -1.21196 4.83 9.29124 0.731672 12.0181 -0.0 -0.0 0.0 0.0 0.0 
3551.31246015 751.306 -1425.78727288 179.24986903 26.0605649562 -170.388776965 1.14777 -0.571716 -4.00507 1.15664 -0.315917 -4.03327 1.18069 0.45659 -4.0198 1.15819 -0.183457 -4.04145 -10.8159 -9.08582 2.87162 -10.9386 -19.0541 0.365781 -0.0 0.0 -0.0 5.93553 -12.5771 11.0 -23.5163 -42.9905 72.1175 0.699607 -19.1146 0.117795 51.4837 -1.07706 -6.26947 -3.2237 26.4032 -7.50933 -0.0 0.0 -0.0 -2.90239 -6.64625 4.45306 3.07072 29.3452 -60.7001 0.653689 17.943 -0.103202 39.7329 0.335441 4.96421 4.84915 16.8277 -26.0365 0.0 0.0 0.0 -8.21473 -15.9868 -7.17644 -1.53711 0.0602318 0.228195 39.2207 17.6098 -4.90595 4.1333 -0.0 -0.0 -0.0 0.0 -0.0 -4.30802 -7.84626 -12.3259 -8.13844 -0.248549 -1.22323 8.02736 6.49534 1.18636 16.4885 -0.0 -0.0 0.0 0.0 0.0 
